<svg width="16" height="17" viewBox="0 0 16 17" fill="none" xmlns="http://www.w3.org/2000/svg">
<path id="Icon" d="M4.42415 12.34L6.03384 13.9503M13.4524 10.5476C12.769 11.2296 11.9124 11.712 10.9751 11.9427C10.0377 12.1734 9.05517 12.1438 8.13344 11.8569L4.83707 15.1475C4.59912 15.3926 4.13021 15.5396 3.79427 15.4906L2.26857 15.2806C1.76466 15.2106 1.29575 14.7345 1.21877 14.2304L1.00881 12.704C0.959819 12.368 1.12079 11.8989 1.35174 11.6608L4.64111 8.37015C4.08122 6.54978 4.51514 4.48436 5.95686 3.04907C8.02146 0.983644 11.3738 0.983644 13.4454 3.04907C15.517 5.11449 15.517 8.48218 13.4524 10.5476ZM9.7502 7.79607C10.0286 7.79607 10.2956 7.68543 10.4925 7.48847C10.6894 7.29152 10.8 7.02439 10.8 6.74586C10.8 6.46733 10.6894 6.2002 10.4925 6.00325C10.2956 5.80629 10.0286 5.69565 9.7502 5.69565C9.47178 5.69565 9.20475 5.80629 9.00788 6.00325C8.811 6.2002 8.7004 6.46733 8.7004 6.74586C8.7004 7.02439 8.811 7.29152 9.00788 7.48847C9.20475 7.68543 9.47178 7.79607 9.7502 7.79607Z" stroke="#1C1C1C" stroke-width="1.5" stroke-linecap="round" stroke-linejoin="round"/>
</svg>
