<svg width="975" height="840" viewBox="0 0 975 840" fill="none" xmlns="http://www.w3.org/2000/svg">
<g id="masked">
<g id="Vector">
<path d="M929.812 542.607C925.099 517.159 909.389 458.288 884.252 426.384C859.115 394.48 839.564 375.869 832.931 370.552C769.042 329.912 634.979 243.049 609.842 220.716C584.705 198.383 556.077 185.583 544.905 181.975C525.878 173.999 476.617 166.592 431.79 200.775C386.962 234.959 362.489 302.375 355.856 331.811C330.893 385.174 278.665 496.574 269.448 515.26C257.927 538.619 223.887 613.252 241.693 695.861C246.755 725.676 263.897 790.662 291.966 812.084C327.053 838.861 331.242 840 356.903 840C382.563 840 536.526 739.16 536.526 739.16L595.179 702.698C599.368 698.14 627.647 695.861 627.647 695.861C658.719 693.582 729.556 690.392 764.329 695.861C807.794 702.698 859.639 700.419 902.581 667.945C936.935 641.966 935.049 573.562 929.812 542.607Z" fill="#CCDEDF"/>
<path d="M723.903 160.4C744.343 254.195 815.894 316.05 883.717 298.557C951.539 281.064 989.951 190.847 969.51 97.0522C949.07 3.25705 877.519 -58.5981 809.696 -41.1052C741.874 -23.6123 703.463 66.6045 723.903 160.4Z" fill="#CCDEDF"/>
<path d="M463.047 -39.7957C485.491 53.4556 558.347 113.48 625.777 94.2721C693.206 75.0643 729.674 -16.1019 707.23 -109.353C684.786 -202.605 611.929 -262.629 544.5 -243.421C477.071 -224.213 440.603 -133.047 463.047 -39.7957Z" fill="#CCDEDF"/>
<path d="M6.62054 354.291C29.0645 447.543 101.921 507.567 169.351 488.359C236.78 469.151 273.248 377.985 250.804 284.734C228.36 191.483 155.503 131.458 88.074 150.666C20.6445 169.874 -15.8234 261.04 6.62054 354.291Z" fill="#CCDEDF"/>
<path d="M181.141 50.2834C205.832 142.86 280.115 200.779 347.056 179.648C413.998 158.517 448.249 66.3391 423.558 -26.2378C398.867 -118.815 324.584 -176.733 257.643 -155.602C190.701 -134.472 156.45 -42.2935 181.141 50.2834Z" fill="#CCDEDF"/>
</g>
<g id="undraw_dog_walking_re_l61p 1" clip-path="url(#clip0_6_316)">
<path id="Vector_2" d="M340.713 591.856C340.942 590.303 340.827 588.718 340.377 587.213C339.926 585.708 339.152 584.321 338.107 583.148C337.062 581.975 335.773 581.046 334.331 580.425C332.888 579.805 331.327 579.508 329.757 579.556L260.953 509.989L247.361 528.99L319.267 591.397C319.522 594.029 320.734 596.476 322.673 598.273C324.612 600.071 327.143 601.096 329.786 601.152C332.43 601.209 335.002 600.294 337.016 598.581C339.03 596.867 340.346 594.475 340.713 591.856Z" fill="#FFB8B8"/>
<path id="Vector_3" d="M308.121 551.686L290.56 569.228C289.719 570.064 288.583 570.535 287.398 570.539C286.212 570.544 285.073 570.082 284.225 569.254L236.237 522.076C234.578 520.444 233.259 518.5 232.356 516.356C231.453 514.212 230.984 511.909 230.976 509.583C230.968 507.256 231.422 504.951 232.311 502.8C233.2 500.65 234.506 498.697 236.154 497.055C237.802 495.412 239.76 494.113 241.913 493.232C244.067 492.351 246.373 491.905 248.7 491.921C251.027 491.937 253.327 492.414 255.469 493.325C257.61 494.236 259.549 495.562 261.175 497.227L308.161 545.359C308.985 546.209 309.442 547.348 309.435 548.531C309.427 549.714 308.956 550.847 308.121 551.686Z" fill="#045B62"/>
<path id="Vector_4" d="M246.531 465.581C260.096 465.581 271.092 454.585 271.092 441.02C271.092 427.455 260.096 416.459 246.531 416.459C232.967 416.459 221.97 427.455 221.97 441.02C221.97 454.585 232.967 465.581 246.531 465.581Z" fill="#FFB8B8"/>
<path id="Vector_5" d="M163.54 735.345L169.759 745.91L213.471 726.951L204.292 711.357L163.54 735.345Z" fill="#FFB8B8"/>
<path id="Vector_6" d="M165.404 730.62L177.651 751.427C178.676 753.168 179.349 755.095 179.629 757.096C179.91 759.097 179.793 761.134 179.287 763.09C178.78 765.046 177.893 766.883 176.677 768.496C175.46 770.109 173.938 771.467 172.196 772.492L171.765 772.746L151.713 738.679L165.404 730.62Z" fill="#2F2E41"/>
<path id="Vector_7" d="M235.597 773.407L247.857 773.407L253.689 726.119L235.595 726.12L235.597 773.407Z" fill="#FFB8B8"/>
<path id="Vector_8" d="M232.47 769.405L256.614 769.404L256.615 769.404C258.636 769.404 260.637 769.802 262.503 770.575C264.37 771.348 266.066 772.481 267.495 773.91C268.924 775.339 270.057 777.035 270.831 778.902C271.604 780.769 272.002 782.769 272.002 784.79L272.002 785.29L232.471 785.292L232.47 769.405Z" fill="#2F2E41"/>
<path id="Vector_9" d="M186.309 744.757C185.603 744.758 184.907 744.592 184.278 744.274C183.648 743.955 183.103 743.493 182.685 742.924L170.861 726.866C170.5 726.376 170.243 725.818 170.104 725.226C169.965 724.634 169.947 724.019 170.052 723.42C170.157 722.821 170.383 722.249 170.715 721.74C171.048 721.23 171.48 720.793 171.986 720.456L224.6 685.314L192.853 601.839L260.742 607.442L263.029 679.175C263.243 685.708 261.678 692.176 258.499 697.888C255.32 703.599 250.649 708.339 244.984 711.599L188.557 744.153C187.874 744.549 187.098 744.757 186.309 744.757Z" fill="#2F2E41"/>
<path id="Vector_10" d="M235.967 763.807C234.803 763.805 233.685 763.352 232.848 762.542C232.011 761.733 231.52 760.631 231.479 759.467L228.991 689.586L259.799 687.962L257.346 758.346C257.31 759.461 256.86 760.523 256.083 761.324C255.307 762.125 254.26 762.608 253.146 762.679L236.273 763.797C236.171 763.804 236.069 763.807 235.967 763.807Z" fill="#2F2E41"/>
<path id="Vector_11" d="M268.599 621.319C260.761 621.319 233.383 612.502 223.878 609.36C222.456 610.498 214.645 616.338 205.527 615.271C199.901 614.611 194.948 611.426 190.806 605.805C181.659 593.391 192.956 540.154 204.045 497.679C206.268 489.094 211.733 481.704 219.291 477.065C226.849 472.425 235.911 470.896 244.573 472.799C250.851 474.185 256.619 477.294 261.227 481.777C265.835 486.261 269.102 491.94 270.661 498.177C272.749 506.675 270.953 516.671 269.641 523.971C269.025 527.403 268.538 530.114 268.704 531.446C269.348 536.594 272.923 617.337 270.624 620.786C270.38 621.153 269.672 621.319 268.599 621.319Z" fill="#045B62"/>
<path id="Vector_12" d="M239.924 621.462C241.184 620.524 242.223 619.321 242.967 617.939C243.712 616.556 244.145 615.027 244.234 613.459C244.324 611.891 244.069 610.322 243.487 608.864C242.905 607.405 242.01 606.092 240.866 605.016L241.351 507.173L218.306 511.01L225.076 605.98C223.396 608.023 222.525 610.61 222.626 613.253C222.727 615.895 223.793 618.408 225.624 620.316C227.454 622.225 229.921 623.395 232.556 623.606C235.192 623.818 237.813 623.055 239.924 621.462Z" fill="#FFB8B8"/>
<path id="Vector_13" d="M245.254 570.008L220.432 570.008C219.247 570.005 218.111 569.535 217.269 568.701C216.427 567.867 215.947 566.735 215.932 565.549L215.323 498.257C215.302 495.93 215.742 493.623 216.619 491.467C217.495 489.311 218.79 487.351 220.429 485.699C222.068 484.047 224.018 482.737 226.167 481.843C228.315 480.95 230.62 480.491 232.947 480.494C235.274 480.497 237.577 480.961 239.723 481.86C241.87 482.759 243.817 484.074 245.452 485.73C247.086 487.386 248.377 489.349 249.248 491.507C250.119 493.665 250.554 495.974 250.527 498.3L249.754 565.56C249.736 566.743 249.255 567.872 248.413 568.704C247.572 569.536 246.437 570.004 245.254 570.008Z" fill="#045B62"/>
<path id="Vector_14" d="M240.277 465.479C229.032 465.499 218.423 456.611 216.475 445.536C215.777 441.185 216.091 436.732 217.394 432.522C218.808 427.73 221.233 423.296 224.505 419.521C227.778 415.745 231.822 412.715 236.365 410.635C240.907 408.554 245.843 407.472 250.84 407.461C255.836 407.449 260.777 408.509 265.329 410.569C268.337 411.93 271.301 413.886 272.678 416.887C274.055 419.888 273.193 424.082 270.18 425.432C268.211 426.315 265.74 425.881 263.993 427.148C261.484 428.967 262.13 432.839 263.25 435.729C264.371 438.619 265.638 442.116 263.76 444.581C262.009 446.879 258.511 446.808 255.755 445.943C253 445.078 250.28 443.63 247.407 443.925C243.216 444.354 240.205 448.522 239.647 452.698C239.09 456.873 240.402 461.047 241.698 465.055L240.277 465.479Z" fill="#2F2E41"/>
<path id="Vector_15" d="M547.616 490.546C547.616 423.38 602.064 264 669.23 264C736.395 264 790.843 423.38 790.843 490.546C790.843 522.8 778.031 553.733 755.224 576.54C732.417 599.347 701.484 612.159 669.23 612.159C636.976 612.159 606.043 599.347 583.236 576.54C560.429 553.733 547.616 522.8 547.616 490.546Z" fill="#045B62"/>
<path id="Vector_16" d="M669.23 786.418C668.964 786.418 668.71 786.313 668.523 786.125C668.335 785.938 668.23 785.683 668.23 785.418L668.23 366.134C668.23 365.869 668.335 365.614 668.523 365.427C668.71 365.239 668.964 365.134 669.23 365.134C669.495 365.134 669.749 365.239 669.937 365.427C670.124 365.614 670.23 365.869 670.23 366.134L670.23 785.418C670.23 785.683 670.124 785.938 669.937 786.125C669.749 786.313 669.495 786.418 669.23 786.418Z" fill="#3F3D56"/>
<path id="Vector_17" d="M669.23 447.08C669.098 447.08 668.968 447.054 668.847 447.004C668.725 446.953 668.615 446.88 668.522 446.787L620.388 398.652C620.202 398.464 620.099 398.211 620.1 397.947C620.1 397.682 620.206 397.429 620.393 397.243C620.579 397.056 620.832 396.951 621.097 396.95C621.361 396.949 621.614 397.053 621.802 397.238L669.937 445.373C670.077 445.512 670.172 445.691 670.21 445.885C670.249 446.078 670.229 446.28 670.153 446.462C670.078 446.645 669.95 446.801 669.785 446.911C669.621 447.021 669.427 447.08 669.23 447.08Z" fill="#3F3D56"/>
<path id="Vector_18" d="M669.23 530.41C669.032 530.41 668.839 530.351 668.674 530.241C668.51 530.131 668.382 529.975 668.306 529.792C668.23 529.61 668.21 529.409 668.249 529.215C668.287 529.021 668.383 528.843 668.523 528.703L749.133 448.092C749.32 447.907 749.574 447.803 749.838 447.804C750.102 447.805 750.355 447.91 750.542 448.097C750.729 448.284 750.834 448.537 750.835 448.801C750.836 449.065 750.732 449.318 750.547 449.506L669.937 530.117C669.844 530.21 669.734 530.283 669.613 530.334C669.491 530.384 669.361 530.41 669.23 530.41Z" fill="#3F3D56"/>
<path id="Vector_19" d="M332.675 591.287C348.63 587.681 366.705 600.161 367.266 616.915C367.423 621.627 366.042 626.576 362.416 629.782C359.422 632.429 354.967 633.764 351.097 632.47C343.65 629.981 343.252 619.603 347.247 614.061C352.656 606.556 363.373 605.274 371.876 606.167C382.272 607.258 392.153 611.817 400.445 618.065C417.043 630.573 427.613 649.743 436.168 668.264C444.925 687.264 451.294 707.276 455.127 727.843C455.609 730.426 456.051 733.016 456.453 735.614C456.566 735.994 456.825 736.315 457.173 736.506C457.521 736.697 457.93 736.743 458.312 736.635C458.689 736.515 459.005 736.255 459.195 735.909C459.385 735.563 459.434 735.157 459.333 734.775C455.832 712.332 449.364 690.453 440.099 669.713C431.141 649.641 419.849 628.82 401.884 615.424C392.929 608.747 382.354 604.1 371.162 603.106C361.74 602.269 350.583 604.263 344.724 612.457C340.102 618.922 340.571 629.665 347.723 634.168C351.655 636.643 356.652 636.354 360.734 634.429C362.901 633.359 364.809 631.831 366.326 629.951C367.843 628.07 368.933 625.882 369.52 623.538C372.06 614.233 368.204 604.168 361.592 597.517C355.387 591.257 346.955 587.711 338.141 587.655C336.018 587.678 333.905 587.93 331.836 588.406C329.953 588.832 330.794 591.712 332.675 591.287Z" fill="#CCCCCC"/>
<path id="Vector_20" d="M409.618 775.55L399.704 758.622L411.929 751.461L421.844 768.388C422.794 770.01 423.06 771.942 422.585 773.76C422.11 775.578 420.933 777.133 419.312 778.082C417.69 779.032 415.758 779.299 413.941 778.824C412.123 778.349 410.568 777.171 409.618 775.55Z" fill="#045B62"/>
<path id="Vector_21" d="M376.836 740.364C381.651 740.364 385.555 736.46 385.555 731.645C385.555 726.829 381.651 722.926 376.836 722.926C372.02 722.926 368.117 726.829 368.117 731.645C368.117 736.46 372.02 740.364 376.836 740.364Z" fill="#045B62"/>
<path id="Vector_22" d="M447.98 775.55L438.065 758.622L450.291 751.461L460.205 768.388C461.153 770.01 461.418 771.94 460.942 773.757C460.467 775.573 459.29 777.127 457.67 778.076C456.05 779.025 454.119 779.292 452.302 778.818C450.485 778.345 448.931 777.169 447.98 775.55Z" fill="#045B62"/>
<path id="Vector_23" d="M378.492 749.21C378.498 744.298 380.452 739.588 383.925 736.115C387.399 732.641 392.108 730.688 397.02 730.682L455.671 730.682C457.748 730.685 459.738 731.51 461.206 732.979C462.674 734.447 463.5 736.437 463.502 738.513L463.502 745.187C463.496 751.166 461.118 756.898 456.89 761.125C452.663 765.353 446.931 767.731 440.952 767.738L397.02 767.738C392.108 767.732 387.399 765.778 383.925 762.305C380.452 758.831 378.498 754.122 378.492 749.21Z" fill="#3F3D56"/>
<path id="Vector_24" d="M392.018 777.733L392.018 758.115L406.186 758.115L406.186 777.733C406.186 779.612 405.44 781.413 404.111 782.742C402.783 784.071 400.981 784.817 399.102 784.817C397.223 784.817 395.421 784.071 394.093 782.742C392.764 781.413 392.018 779.612 392.018 777.733Z" fill="#3F3D56"/>
<path id="Vector_25" d="M433.13 777.733L433.13 758.115L447.299 758.115L447.299 777.733C447.3 778.664 447.117 779.586 446.762 780.446C446.406 781.307 445.885 782.089 445.227 782.747C444.569 783.406 443.788 783.929 442.927 784.285C442.067 784.642 441.146 784.825 440.215 784.825C439.284 784.825 438.362 784.642 437.502 784.285C436.642 783.929 435.86 783.406 435.202 782.747C434.544 782.089 434.023 781.307 433.667 780.446C433.312 779.586 433.129 778.664 433.13 777.733Z" fill="#3F3D56"/>
<path id="Vector_26" d="M490.775 700.117C492.225 698.319 494.329 697.17 496.625 696.922C498.921 696.673 501.222 697.346 503.022 698.792C504.823 700.238 505.976 702.34 506.229 704.635C506.482 706.931 505.814 709.233 504.371 711.036L490.04 728.881L476.444 717.961L490.775 700.117Z" fill="#045B62"/>
<path id="Vector_27" d="M456.252 735.269L467.734 720.974C470.526 717.506 474.579 715.287 479.005 714.803C483.431 714.32 487.868 715.612 491.342 718.396L494.929 721.277C499.064 724.606 501.71 729.439 502.286 734.716C502.862 739.993 501.321 745.283 498.002 749.425L488.543 761.203C487.497 762.501 485.98 763.332 484.323 763.513C482.666 763.694 481.005 763.21 479.704 762.168L457.217 744.108C455.919 743.063 455.088 741.545 454.907 739.888C454.726 738.231 455.21 736.57 456.252 735.269Z" fill="#3F3D56"/>
<path id="Vector_28" d="M492.482 697.992C492.975 697.379 493.584 696.868 494.274 696.49C494.964 696.111 495.722 695.872 496.505 695.787C497.287 695.702 498.079 695.771 498.835 695.992C499.59 696.212 500.295 696.579 500.909 697.072C501.523 697.565 502.033 698.174 502.412 698.865C502.79 699.555 503.029 700.313 503.114 701.095C503.2 701.878 503.13 702.67 502.909 703.425C502.689 704.181 502.322 704.886 501.829 705.499L485.791 725.468L476.444 717.961L492.482 697.992Z" fill="#3F3D56"/>
<path id="Vector_29" d="M469.506 731.371L494.149 751.163C495.945 752.613 497.092 754.716 497.34 757.011C497.588 759.307 496.915 761.606 495.469 763.406C494.024 765.206 491.923 766.359 489.629 766.613C487.334 766.866 485.033 766.199 483.229 764.758L458.587 744.967L469.506 731.371Z" fill="#3F3D56"/>
<path id="Vector_30" d="M496.542 764.066C497.814 762.482 498.132 760.625 497.252 759.919C496.372 759.212 494.627 759.923 493.355 761.507C492.083 763.091 491.765 764.948 492.645 765.654C493.525 766.361 495.27 765.65 496.542 764.066Z" fill="#045B62"/>
<path id="Vector_31" d="M740.997 786.233L49.9974 786.233C49.7322 786.233 49.4778 786.127 49.2903 785.94C49.1027 785.752 48.9974 785.498 48.9974 785.233C48.9974 784.967 49.1027 784.713 49.2903 784.526C49.4778 784.338 49.7322 784.233 49.9974 784.233L740.997 784.233C741.263 784.233 741.517 784.338 741.705 784.526C741.892 784.713 741.997 784.967 741.997 785.233C741.997 785.498 741.892 785.752 741.705 785.94C741.517 786.127 741.263 786.233 740.997 786.233Z" fill="#CCCCCC"/>
</g>
</g>
<defs>
<clipPath id="clip0_6_316">
<rect width="741.846" height="522.418" fill="white" transform="translate(48.9974 264)"/>
</clipPath>
</defs>
</svg>
