<svg width="22" height="23" viewBox="0 0 22 23" fill="none" xmlns="http://www.w3.org/2000/svg">
<path id="Vector" d="M13.53 8.97L8.47 14.03M13.53 8.97C12.859 8.299 11.9489 7.92204 11 7.92204C10.5301 7.92204 10.0649 8.01459 9.63077 8.1944C9.19668 8.37421 8.80224 8.63776 8.47 8.97C8.13776 9.30224 7.87421 9.69668 7.6944 10.1308C7.51459 10.5649 7.42204 11.0301 7.42204 11.5C7.42204 12.4489 7.799 13.359 8.47 14.03M13.53 8.97L21 1.5M8.47 14.03L1 21.5M16.82 5.27C15.07 3.95 13.07 3.23 11 3.23C7.47 3.23 4.18 5.31 1.89 8.91C0.99 10.32 0.99 12.69 1.89 14.1C2.68 15.34 3.6 16.41 4.6 17.27M7.42 19.03C8.56 19.51 9.77 19.77 11 19.77C14.53 19.77 17.82 17.69 20.11 14.09C21.01 12.68 21.01 10.31 20.11 8.9C19.78 8.38 19.42 7.89 19.05 7.43M14.51 12.2C14.3745 12.8976 14.0337 13.5387 13.5312 14.0412C13.0287 14.5437 12.3876 14.8845 11.69 15.02" stroke="#1C1C1C" stroke-width="2" stroke-linecap="round" stroke-linejoin="round"/>
</svg>
